<svg
          xmlns="http://www.w3.org/2000/svg"
          width="12"
          height="12"
          viewBox="0 0 16 16"
          fill="none"
        >
                <g clip-path="url(#clip0_2454_1154)">
                  <path
              d="M12.6459 9.91173C12.3179 9.56973 11.9239 9.38773 11.5039 9.38773C11.0879 9.38773 10.6899 9.56573 10.3499 9.90773L9.28185 10.9717C9.19385 10.9237 9.10585 10.8797 9.02185 10.8357C8.89985 10.7757 8.78585 10.7177 8.68785 10.6577C7.68785 10.0237 6.77985 9.19573 5.90785 8.12573C5.48585 7.59173 5.20185 7.14373 4.99585 6.68773C5.27185 6.43373 5.52985 6.17173 5.77985 5.91773C5.87385 5.82373 5.96985 5.72573 6.06385 5.62973C6.77385 4.91973 6.77385 4.00173 6.06385 3.29373L5.14185 2.37173C5.03785 2.26773 4.92985 2.15973 4.82785 2.05173C4.62585 1.84173 4.41185 1.62573 4.19385 1.42373C3.86585 1.09973 3.47385 0.927734 3.06185 0.927734C2.64985 0.927734 2.25185 1.09973 1.91385 1.42373C1.90985 1.42773 1.90985 1.42773 1.90785 1.42973L0.759853 2.58773C0.325853 3.01973 0.0798535 3.54573 0.0258535 4.15773C-0.0561465 5.14373 0.235854 6.06173 0.457854 6.66373C1.00585 8.13973 1.82185 9.50773 3.04185 10.9717C4.52185 12.7377 6.29985 14.1317 8.33385 15.1157C9.10985 15.4837 10.1479 15.9197 11.3059 15.9937C11.3759 15.9977 11.4519 15.9997 11.5179 15.9997C12.2979 15.9997 12.9539 15.7197 13.4659 15.1617C13.4699 15.1557 13.4759 15.1517 13.4799 15.1457C13.6559 14.9337 13.8579 14.7397 14.0699 14.5337C14.2159 14.3957 14.3639 14.2497 14.5079 14.0977C14.8419 13.7497 15.0179 13.3437 15.0179 12.9297C15.0179 12.5117 14.8399 12.1097 14.4979 11.7717L12.6459 9.91173Z"
              fill="#7B7B7B"
            />
                  <path
              d="M8.64571 3.80439C9.52971 3.95239 10.3337 4.37239 10.9757 5.01239C11.6177 5.65239 12.0317 6.45839 12.1837 7.34239C12.2217 7.56439 12.4137 7.72039 12.6337 7.72039C12.6617 7.72039 12.6837 7.71639 12.7117 7.71439C12.9617 7.67439 13.1277 7.43839 13.0857 7.18839C12.9037 6.11839 12.3977 5.14239 11.6237 4.36839C10.8497 3.59439 9.87371 3.08839 8.80371 2.90639C8.55371 2.86639 8.32171 3.03039 8.27771 3.27839C8.23371 3.52439 8.39571 3.76439 8.64571 3.80439Z"
              fill="#7B7B7B"
            />
                  <path
              d="M15.9814 7.05705C15.6814 5.29505 14.8494 3.69105 13.5734 2.41305C12.2974 1.13505 10.6934 0.307051 8.92941 0.00505109C8.68341 -0.0389489 8.44941 0.129051 8.40541 0.377051C8.36541 0.627051 8.52941 0.859051 8.77941 0.903051C10.3534 1.16905 11.7874 1.91705 12.9294 3.05505C14.0714 4.19705 14.8134 5.63105 15.0814 7.20505C15.1194 7.42705 15.3114 7.58305 15.5314 7.58305C15.5594 7.58305 15.5814 7.57905 15.6094 7.57705C15.8554 7.53905 16.0254 7.30305 15.9814 7.05705Z"
              fill="#7B7B7B"
            />
                </g>
                <defs>
                  <clipPath id="clip0_2454_1154">
                    <rect width="16" height="16" fill="white" />
                  </clipPath>
                </defs>
              </svg>